<svg width="24" height="25" viewBox="0 0 24 25" fill="none" xmlns="http://www.w3.org/2000/svg">
<path d="M5 7.01465H6.42963C7.09834 7.01465 7.7228 6.68045 8.09373 6.12405L8.90627 4.90525C9.2772 4.34885 9.90166 4.01465 10.5704 4.01465H13.4296C14.0983 4.01465 14.7228 4.34885 15.0937 4.90525L15.9063 6.12405C16.2772 6.68045 16.9017 7.01465 17.5704 7.01465H19C20.1046 7.01465 21 7.91008 21 9.01465V18.0146C21 19.1192 20.1046 20.0146 19 20.0146H5C3.89543 20.0146 3 19.1192 3 18.0146V9.01465C3 7.91008 3.89543 7.01465 5 7.01465Z" stroke="white" stroke-width="2" stroke-linecap="square" stroke-linejoin="round"/>
<path d="M15 13.0146C15 14.6715 13.6569 16.0146 12 16.0146C10.3431 16.0146 9 14.6715 9 13.0146C9 11.3577 10.3431 10.0146 12 10.0146C13.6569 10.0146 15 11.3577 15 13.0146Z" stroke="white" stroke-width="2" stroke-linecap="square" stroke-linejoin="round"/>
</svg>
