<svg width="24" height="25" viewBox="0 0 24 25" fill="none" xmlns="http://www.w3.org/2000/svg">
<path d="M4 9.34465H7C8.10457 9.34465 9 8.44922 9 7.34465V6.01465C9 4.91008 8.10457 4.01465 7 4.01465H4M4 9.34465L12.5 9.34471C13.6046 9.34472 14.5 10.2401 14.5 11.3447V12.6747C14.5 13.7792 13.6046 14.6747 12.5 14.6747H4M4 9.34465V4.01465M4 9.34465V14.6747M4 4.01465V2.01465M4 14.6747H18C19.1046 14.6748 20 15.5702 20 16.6747V18.0048C20 19.1093 19.1046 20.0048 18 20.0048H4M4 14.6747V20.0048M4 20.0048V22.0146" stroke="white" stroke-width="2" stroke-linecap="round" stroke-linejoin="round"/>
</svg>
