<svg width="70" height="70" viewBox="0 0 70 70" fill="none" xmlns="http://www.w3.org/2000/svg">
<rect width="70" height="70" rx="35" fill="white"/>
<path fill-rule="evenodd" clip-rule="evenodd" d="M30.7323 10.6657C31.7085 9.77811 33.2915 9.77811 34.2677 10.6657L41.7677 17.4839C42.744 18.3714 42.744 19.8104 41.7677 20.698L34.2677 27.5162C33.2915 28.4037 31.7085 28.4037 30.7323 27.5162C29.7559 26.6286 29.7559 25.1896 30.7323 24.302L33.9645 21.3637H30C21.7157 21.3637 15 27.4689 15 35C15 38.7164 16.632 42.0816 19.2856 44.5435C20.252 45.4398 20.2359 46.8789 19.2498 47.7573C18.2636 48.636 16.6807 48.6212 15.7144 47.7248C12.1821 44.4478 10 39.9532 10 35C10 24.9585 18.9543 16.8182 30 16.8182H33.9645L30.7323 13.8798C29.7559 12.9922 29.7559 11.5532 30.7323 10.6657ZM50.7503 22.2427C51.7365 21.3642 53.3192 21.3788 54.2855 22.2753C57.818 25.5523 60 30.0468 60 35C60 45.0416 51.0457 53.1819 40 53.1819H36.0355L39.2677 56.1203C40.244 57.0078 40.244 58.4469 39.2677 59.3344C38.2915 60.2219 36.7085 60.2219 35.7323 59.3344L28.2322 52.5162C27.2559 51.6287 27.2559 50.1896 28.2322 49.3021L35.7323 42.4839C36.7085 41.5964 38.2915 41.5964 39.2677 42.4839C40.244 43.3714 40.244 44.8105 39.2677 45.698L36.0355 48.6364H40C48.2842 48.6364 55 42.5312 55 35C55 31.2837 53.368 27.9185 50.7145 25.4566C49.748 24.5601 49.764 23.1212 50.7503 22.2427Z" fill="black" fill-opacity="0.5"/>
</svg>
