<svg width="264" height="263" viewBox="0 0 264 263" fill="none" xmlns="http://www.w3.org/2000/svg">
<path d="M190.454 199.105C230.402 139.641 198.859 42.0399 153.723 27.1565C108.436 12.2126 123.065 97.0664 141.816 92.5904C155.812 89.2511 113.461 23.6251 78.5086 32.1846C43.5584 40.7348 85.6201 101.346 90.9377 95.2358C99.4423 85.4584 42.9866 56.5646 32.7043 80.0936C22.4221 103.623 60.6323 135.626 60.6323 135.626L190.445 199.103L190.454 199.105Z" fill="#A4CFFF"/>
<path d="M188.518 197.808C214.591 157.017 208.642 96.4178 182.638 56.9507C176.035 47.0893 167.447 37.9307 156.709 32.9049C135.463 23.1428 127.652 36.5379 128.116 56.4428C128.439 65.1804 130.237 74.2712 134.25 82.0102C135.544 84.2711 137.942 88.4052 140.658 88.2795C140.689 88.2667 140.834 88.2676 140.756 88.2708C140.725 88.2836 140.579 88.331 140.45 88.4399C140.133 88.6646 140.018 88.9891 140.068 88.8835C140.323 86.8072 139.491 84.5158 138.725 82.4125C137.705 79.763 136.36 77.0947 134.854 74.4997C124.927 57.4966 101.467 32.0356 79.9623 36.2616C57.341 40.9246 75.1027 74.1014 83.7843 85.0987C85.5948 87.389 88.007 90.3262 90.342 91.6701C90.3549 91.7018 89.8469 91.4904 89.0383 91.7974C88.5856 91.9748 88.16 92.2546 87.8919 92.6153C87.8263 92.6985 87.7854 92.99 87.8027 92.9065C87.7956 92.847 87.7364 92.5251 87.5104 92.1203C82.033 84.0207 67.0977 77.8565 57.7136 75.8298C46.4711 73.4772 34.8978 74.598 34.6296 88.5842C34.7319 100.17 42.3357 111.138 49.4965 120.176C53.3853 125.005 57.7141 129.625 62.1679 133.875C64.2532 135.912 61.4541 139.108 59.1513 137.374C48.9578 129.103 39.9258 119.707 33.2768 108.24C27.134 97.8347 23.7608 82.4572 33.2625 72.8181C40.2742 66.2836 50.6619 66.5919 59.2692 68.3032C70.7585 70.7262 88.2108 77.9622 94.5322 88.3459C96.6684 91.7293 96.1566 97.6234 91.8227 99.3018C87.124 100.779 83.4353 96.6199 80.722 93.9688C68.5166 80.6368 50.2887 47.7023 67.7352 32.6797C79.7039 23.2311 96.7693 27.0485 108.45 34.3981C119.899 41.419 129.223 50.9912 137.07 61.7193C142.074 68.8308 155.051 88.2157 145.618 95.6045C142.149 98.0616 137.144 97.366 133.868 95.0533C123.419 87.4552 119.825 68.8386 119.409 56.6658C119.145 44.505 121.695 29.6358 133.642 23.3858C148.307 16.3428 166.509 26.8307 176.822 37.0523C206.713 67.3554 217.736 119.278 209.258 160.202C207.851 167.198 205.568 174.545 202.84 181.142C202.23 182.971 200.558 186.051 199.818 187.805C198.857 189.88 197.39 192.2 196.314 194.222C195.35 195.891 193.365 198.751 192.353 200.371C190.566 202.886 186.855 200.425 188.511 197.797L188.518 197.808Z" fill="url(#paint0_linear_229_5881)"/>
<path d="M186.749 186.827C196.772 150.484 172.829 112.178 133.272 101.269C93.7144 90.3599 53.5218 110.979 43.4992 147.322C33.4765 183.665 57.4192 221.971 96.9766 232.88C136.534 243.789 176.727 223.17 186.749 186.827Z" fill="url(#paint1_linear_229_5881)"/>
<path d="M232.288 195.058L192.827 161.287L55.8438 101.602L47.1698 143.569L87.2918 161.5L114.188 138.637L111.536 173.517L162.864 195.758L188.567 175.716L227.569 198.128L232.288 195.058Z" fill="url(#paint2_linear_229_5881)"/>
<path d="M206.639 220.426C219.957 211.408 225.437 196.246 218.878 186.559C212.319 176.873 196.206 176.331 182.888 185.349C169.57 194.367 164.09 209.529 170.649 219.216C177.208 228.902 193.321 229.444 206.639 220.426Z" fill="url(#paint3_linear_229_5881)"/>
<path d="M200.153 210.858C206.199 206.765 209.354 200.867 207.2 197.686C205.046 194.505 198.399 195.245 192.353 199.339C186.307 203.432 183.152 209.33 185.306 212.511C187.46 215.692 194.107 214.952 200.153 210.858Z" fill="#67B7F9"/>
<path d="M184.151 213.316C181.751 210.556 182.923 206.337 184.598 203.615C188.521 197.323 196.463 192.423 204.056 193.799C205.856 193.987 210.354 197.036 207.8 198.811C207.181 199.138 206.528 198.926 206.055 198.499C204.733 197.5 202.464 197.757 200.266 198.415C195.453 199.84 185.788 206.194 186.513 211.724C187.172 213.263 185.288 214.558 184.161 213.318L184.151 213.316Z" fill="url(#paint4_linear_229_5881)"/>
<path d="M192.056 178.238C213.15 170.008 232.54 185.425 222.66 207.663C214.943 224.59 190.459 237.094 173.533 226.231C171.171 224.601 169.229 222.38 167.803 219.918C166.414 217.415 165.698 214.605 165.576 211.871C165.519 210.553 166.536 209.427 167.863 209.373C169.103 209.319 170.166 210.216 170.344 211.414C170.688 213.498 171.43 215.432 172.549 217.086C175.16 220.935 179.56 222.919 184.129 223.379C194.462 224.189 204.738 218.9 211.43 211.197C220.083 201.546 221.525 185.955 206.582 182.45C202.456 181.481 197.895 181.777 193.489 182.821C190.589 183.461 189.341 179.341 192.082 178.253L192.056 178.238Z" fill="url(#paint5_linear_229_5881)"/>
<path d="M149.528 178.08C142.505 187.67 129.721 191.792 118.21 189.752C106.967 187.825 96.9293 180.766 89.9561 172.038C89.4657 171.414 89.5644 170.515 90.1883 170.025C90.6983 169.618 91.4046 169.618 91.9115 169.975C96.2707 173.043 100.629 175.928 105.213 178.143C119.375 185.522 133.959 184.114 147.502 176.084C148.798 175.152 150.459 176.763 149.53 178.071L149.528 178.08Z" fill="url(#paint6_linear_229_5881)"/>
<path d="M58.5299 132.755L60.7578 112.284L79.3232 119.566L62.9298 117.039L58.5299 132.755Z" fill="#F3F6FF"/>
<path d="M121.266 161.6L123.484 141.127L142.05 148.409L125.656 145.882L121.266 161.6Z" fill="#F3F6FF"/>
<defs>
<linearGradient id="paint0_linear_229_5881" x1="139.651" y1="19.5594" x2="105.675" y2="183.945" gradientUnits="userSpaceOnUse">
<stop stop-color="#3A3A3A"/>
<stop offset="1"/>
</linearGradient>
<linearGradient id="paint1_linear_229_5881" x1="189.156" y1="86.0581" x2="49.6717" y2="238.69" gradientUnits="userSpaceOnUse">
<stop offset="0.25" stop-color="#A4CEFF"/>
<stop offset="1" stop-color="#68AEFF"/>
</linearGradient>
<linearGradient id="paint2_linear_229_5881" x1="149.714" y1="121.003" x2="135.435" y2="190.089" gradientUnits="userSpaceOnUse">
<stop stop-color="#3A3A3A"/>
<stop offset="1"/>
</linearGradient>
<linearGradient id="paint3_linear_229_5881" x1="170.743" y1="196.611" x2="218.633" y2="209.818" gradientUnits="userSpaceOnUse">
<stop offset="0.25" stop-color="#A4CEFF"/>
<stop offset="1" stop-color="#62ABFF"/>
</linearGradient>
<linearGradient id="paint4_linear_229_5881" x1="197.87" y1="192.509" x2="193.123" y2="215.476" gradientUnits="userSpaceOnUse">
<stop stop-color="#3A3A3A"/>
<stop offset="1"/>
</linearGradient>
<linearGradient id="paint5_linear_229_5881" x1="201.647" y1="175.045" x2="190.009" y2="231.355" gradientUnits="userSpaceOnUse">
<stop stop-color="#3A3A3A"/>
<stop offset="1"/>
</linearGradient>
<linearGradient id="paint6_linear_229_5881" x1="116.113" y1="174.099" x2="89.1133" y2="233.599" gradientUnits="userSpaceOnUse">
<stop/>
<stop offset="1" stop-color="#3A3A3A"/>
</linearGradient>
</defs>
</svg>
