<svg width="24" height="25" viewBox="0 0 24 25" fill="none" xmlns="http://www.w3.org/2000/svg">
<path d="M6.11594 18.8249C7.44562 17.1089 9.50054 16.0146 12 16.0146C14.4995 16.0146 16.5544 17.1089 17.8841 18.8249M6.11594 18.8249C7.69368 20.1893 9.75046 21.0146 12 21.0146C14.2495 21.0146 16.3063 20.1893 17.8841 18.8249M6.11594 18.8249C4.20753 17.1746 3 14.7356 3 12.0146C3 7.04409 7.02944 3.01465 12 3.01465C16.9706 3.01465 21 7.04409 21 12.0146C21 14.7356 19.7925 17.1746 17.8841 18.8249M15 10.0146C15 11.6715 13.6569 13.0146 12 13.0146C10.3431 13.0146 9 11.6715 9 10.0146C9 8.3578 10.3431 7.01465 12 7.01465C13.6569 7.01465 15 8.3578 15 10.0146Z" stroke="white" stroke-width="2" stroke-linejoin="round"/>
</svg>
